<svg width="171" height="81" viewBox="0 0 171 81" fill="var(--text)" xmlns="http://www.w3.org/2000/svg">
<path d="M170.118 29.3477C170.118 29.3477 170.045 30.5 168.545 30.5C167.045 30.5 166.509 29.1606 166.509 29.1606C164.298 24.0262 161.21 21.3562 157.244 21.1505C153.343 20.9483 150.557 23.1181 148.888 27.6602C160.652 37.1362 166.235 47.6607 165.635 59.2337C165.345 64.8252 163.054 67.5097 158.763 67.2872C154.537 67.0681 150.695 63.8374 147.238 57.5953C143.842 51.4216 142.353 44.3038 142.771 36.2417C142.828 35.1364 142.978 33.5143 143.219 31.3755C136.272 25.8 130.523 22.8942 125.971 22.6583C120.965 22.3987 117.055 25.5207 114.24 32.0243C120.34 43.8795 123.188 53.7081 122.784 61.5101C122.315 70.5475 119.48 74.9313 114.279 74.6616C110.703 74.4762 107.801 71.9789 105.573 67.1695C103.342 62.4253 102.411 56.4771 102.782 49.3253C103.109 43.0187 104.585 37.1953 107.208 31.8553C103.638 25.2814 99.0261 19.9247 93.3735 15.7853C87.7175 11.7109 82.2888 9.53891 77.0874 9.26922C72.1462 9.01301 67.7349 10.4793 63.8536 13.668C59.969 16.9217 57.8262 22.4171 57.425 30.1541C57.2834 32.8848 57.1965 37.7045 57.1642 44.6131C57.1772 48.1341 57.1264 50.9999 57.0118 53.2105C56.5871 61.4026 54.2894 68.3481 48.5448 73.5263C42.7969 78.7696 38.7076 81.1148 28.0448 80.5619C23.2641 80.314 20.3623 79.542 15.289 76.8016C10.2124 74.1263 5.99945 69.8206 3.02167 64.3857C-0.0211246 58.9474 -0.110749 52.3016 0.0448145 49.3016C0.263937 45.0755 1.17916 41.1778 3.5448 38.3016C5.91044 35.4255 7.91521 34.1297 11.2311 34.3017C13.5067 34.4197 15.4322 35.6834 17.1901 37.5748C17.8656 38.3016 18.798 40.8482 18.6509 43.3016C18.5619 44.7866 18.233 47.8884 17.1901 50.3016C15.6849 54.183 15.4555 57.1445 15.289 59.9207C15.0607 63.7299 16.1813 66.8875 18.6509 69.3935C21.042 71.9607 22.8518 73.3139 26.9479 73.5263C30.5238 73.7117 32.1852 73.2027 34.5448 71.3016C35.693 70.3766 37.0448 69.3935 38.7036 64.8471C39.4421 62.823 39.2975 58.7666 39.2611 56.2387C39.2132 45.3586 39.2451 38.0463 39.357 34.3017C39.7543 21.0017 45.0677 11.7329 49.6179 7.56189C55.6179 2.06188 60.6179 0 69.9406 0C86.715 0.869747 100.323 9.36573 110.765 25.488C114.507 18.7065 119.466 15.4758 125.643 15.7961C131.299 16.0894 137.546 18.8254 144.383 24.0041C146.666 15.1911 151.09 10.9549 157.657 11.2954C161.298 11.4842 164.336 13.2389 166.772 16.5596C169.204 19.9453 170.319 24.208 170.118 29.3477Z" fill="var(--text)"/>
</svg>
